<?xml version="1.0" encoding="utf-8"?>
<!-- Generator: Adobe Illustrator 24.1.1, SVG Export Plug-In . SVG Version: 6.00 Build 0)  -->
<svg version="1.1" id="Layer_1" xmlns="http://www.w3.org/2000/svg" xmlns:xlink="http://www.w3.org/1999/xlink" x="0px" y="0px"
	 viewBox="0 0 512 512" style="enable-background:new 0 0 512 512;" xml:space="preserve">
<g>
	<path d="M256,120.4c-38.7,0-70,31.4-70,70c0,38.7,31.4,70,70,70c38.7,0,70-31.3,70-70C326,151.8,294.7,120.4,256,120.4z M256,225.4
		c-19.3,0-35-15.7-35-35s15.7-35,35-35s35,15.7,35,35C291,209.7,275.4,225.4,256,225.4z"/>
	<path d="M445.3,170.5C435,74.3,354.2,0,256,0C150.9,0,65.7,85.2,65.7,190.3c0,38.6,11.5,74.6,31.3,104.6l-0.4-0.7l132.3,203.1
		c5.9,8.9,15.8,14.7,27.2,14.7c11.3,0,21.3-5.8,27.1-14.6l0.1-0.1l132.3-203.1c19.3-29.3,30.8-65.3,30.8-104
		c0-6.9-0.4-13.7-1.1-20.4L445.3,170.5L445.3,170.5z M386.2,275L256,474.8L125.9,275c-39.8-61.1-31.3-143,20.3-194.6
		C174.3,52.4,213.2,35,256,35s81.7,17.4,109.8,45.5C417.4,132.1,426,213.9,386.2,275z"/>
</g>
</svg>
